/* XPM */
static char *_66f3149ce7d428fcc44df270152f8adDkWvsHy9NSDoRAdP[] = {
/* columns rows colors chars-per-pixel */
"100 100 19 1 ",
"  c #38202E",
". c #6C3539",
"X c #6E3539",
"o c #6E373B",
"O c #174438",
"+ c #17443B",
"@ c #9D4C46",
"# c #BE6D47",
"$ c #BE6F47",
"% c #38A029",
"& c #38A129",
"* c #38A12B",
"= c #6CBD3C",
"- c #6EBD3C",
"; c #6EBF3C",
": c #6EBD3F",
"> c #005BA7",
", c #0095E9",
"< c #8DFDFF",
/* pixels */
",,,,,,,,,,,,,,,,,,,,,,,,,,,,,,,,,,,,,,,,,,,,,,,,,,,,,,,,,,,,,,,,,,,,,,,,,,,,,,,,,,,,,,,,,,,,,,,,,,,,",
",,,,,,,,,,,,,,,,,,,,,,,,,,,,,,,,,,,,,,,,,,,,,,,,,,,,,,,,,,,,,,,,,,,,,,,,,,,,,,,,,,,,,,,,,,,,,,,,,,,,",
",,,,,,,,,,,,,,,,,,,,,,,,,,,,,,,,,,,,,,,,,,,,,,,,,,,,,,,,,,,,,,,,,,,,,,,,,,,,,,,,,,,,,,,,,,,,,,,,,,,,",
",,,,,,,,,,,,,,,,,,,,,,,,,,,,,,,,,,,,,,,,,,,,,,,,,,,,,,,,,,,,,,,,,,,,,,,,,,,,,,,,,,,,,,,,,,,,,,,,,,,,",
",,,,,,,,,,,,,,,,,,,,,,,,,,,,,,,,,,,,,,,,,,,,,,,,,,,,,,,,,,,,,,,,,,,,,,,,,,,,,,,,,,,,,,,,,,,,,,,,,,,,",
",,,,,,,,,,,,,,,,,,,,,,,,,,,,,,,,,,,,,,,,,,,,,,,,,,,,,,,,,,,,,,,,,,,,,,,,,,,,,,,,,,,,,,,,,,,,,,,,,,,,",
",,,,,,,,,,,,,,,,,,,,,,,,,,,,,,,,,,,,,,,,,,,,,,,,,,,,,,,,,,,,,,,,,,,,,,,,,,,,,,,,,,,,,,,,,,,,,,,,,,,,",
",,,,,,,,,,,,,,,,,,,,,,,,,,,,,,,,,,,,,,,,,,,,,,,,,,,,,,,,,,,,,,,,,,,,,,,,,,,,,,,,,,,,,,,,,,,,,,,,,,,,",
",,,,,,,,,,,,,,,,,,,,,,,,,,,,,,,,,,,,,,,,,,,,,,,,,,,,,,,,,,,,,,,,,,,,,,,,,,,,,,,,,,,,,,,,,,,,,,,,,,,,",
",,,,,,,,,,,,,,,,,,,,,,,,,,,,,,,,,,,,,,,,,,,,,,,,,,,,,,,,,,,,,,,,,,,,,,,,,,,,,,,,,,,,,,,,,,,,,,,,,,,,",
",,,,,,,,,,,,,,,,,,,,,,,,,,,,,,,,,,,,,,,,,,,,,,,,,,,,,,,,,,,,,,,,,,,,,,,,,,,,,,,,,,,,,,,,,,,,,,,,,,,,",
",,,,,,,,,,,,,,,,,,,,,,,,,,,,,,,,,,,,,,,,,,,,,,,,,,,,,,,,,,,,,,,,,,,,,,,,,,,,,,,,,,,,,,,,,,,,,,,,,,,,",
",,,,,,,,,,,,,,,,,,,,,,,,,,,,,,,,,,,,,,,,>>>>>>>>>>>>>>>>>>>>,,,,,,,,,,,,,,,,,,,,,,,,,,,,,,,,,,,,,,,,",
",,,,,,,,,,,,,,,,,,,,,,,,,,,,,,,,,,,,,,,,>>>>>>>>>>>>>>>>>>>>,,,,,,,,,,,,,,,,,,,,,,,,,,,,,,,,,,,,,,,,",
",,,,,,,,,,,,,,,,,,,,,,,,,,,,,,,,,,,,,,,,>>>>>>>>>>>>>>>>>>>>,,,,,,,,,,,,,,,,,,,,,,,,,,,,,,,,,,,,,,,,",
",,,,,,,,,,,,,,,,,,,,,,,,,,,,OOOOOOOOO>>>OOOOOO<<<<<<<<OOOOOO>>>OOOOOOOOO,,,,,,,,,,,,,,,,,,,,,,,,,,,,",
",,,,,,,,,,,,,,,,,,,,,,,,,,,,OOOOOOOOO>>>OOOOOO<<<<<<<<OOOOOO>>>OOOOOOOOO,,,,,,,,,,,,,,,,,,,,,,,,,,,,",
",,,,,,,,,,,,,,,,,,,,,,,,,,,,OOOOOOOOO>>>OOOOOO<<<<<<<<OOOOOO>>>OOOOOOOOO,,,,,,,,,,,,,,,,,,,,,,,,,,,,",
",,,,,,,,,,,,,,,,,,,,,OOOOOOOOOO&&&&&&OOO&&&OOOOOOOOOOOOOO&&&OOO&&&&&&OOOOOOOOOO,,,,,,,,,,,,,,,,,,,,,",
",,,,,,,,,,,,,,,,,,,,,OOOOOOOOOO&&&&&&OOO&&&OOOOOOOOOOOOOO&&&OOO&&&&&&OOOOOOOOOO,,,,,,,,,,,,,,,,,,,,,",
",,,,,,,,,,,,,,,,,,,,,OOOOOOOOOO&&&&&&OOO&&&OOOOOOOOOOOOOO&&&OOO&&&&&&OOOOOOOOOO,,,,,,,,,,,,,,,,,,,,,",
",,,,,,,,,,,,OOOOOOOOOOOO-------OOO&&&------&&&OOOOOOOO&&&------&&&OOO------OOOOOOOOOOOOO,,,,,,,,,,,,",
",,,,,,,,,,,,OOOOOOOOOOOO-------OOO&&&------&&&OOOOOOOO&&&------&&&OOO------OOOOOOOOOOOOO,,,,,,,,,,,,",
",,,,,,,,,,,,OOOOOOOOOOOO-------OOO&&&------&&&OOOOOOOO&&&------&&&OOO------OOOOOOOOOOOOO,,,,,,,,,,,,",
",,,,,,,,,>>>OOO&&&&&&OOO-------&&&--------------------------------&&&------OOOO&&&&&&OOO>>>,,,,,,,,,",
",,,,,,,,,>>>OOO&&&&&&OOO-------&&&--------------------------------&&&------OOOO&&&&&&OOO>>>,,,,,,,,,",
",,,,,,,,,>>>OOO&&&&&&OOO-------&&&--------------------------------&&&------OOOO&&&&&&OOO>>>,,,,,,,,,",
",,,,,,,,,>>>OOO&&&&&&OOO-------&&&--------------------------------&&&------OOOO&&&&&&OOO>>>,,,,,,,,,",
",,,,,,>>><<<OOO&&&---OOO&&&&--------------------------------------------&&&OOOO---&&&OOO<<<>>>,,,,,,",
",,,,,,>>><<<OOO&&&---OOO&&&&--------------------------------------------&&&OOOO---&&&OOO<<<>>>,,,,,,",
",,,,,,>>><<<OOO&&&---OOO&&&&--------------------------------------------&&&OOOO---&&&OOO<<<>>>,,,,,,",
",,,,,,>>><<<XXXOOO&&&---OOOO&&&--------------------------------------&&&OOO----&&&OOOXXX<<<>>>,,,,,,",
",,,,,,>>><<<XXXOOO&&&---OOOO&&&--------------------------------------&&&OOO----&&&OOOXXX<<<>>>,,,,,,",
",,,,,,>>><<<XXXOOO&&&---OOOO&&&--------------------------------------&&&OOO----&&&OOOXXX<<<>>>,,,,,,",
",,,>>><<<OOOOOOOOO&&&---&&&&--------------------------------------------&&&----&&&OOOOOOOOO<<<>>>,,,",
",,,>>><<<OOOOOOOOO&&&---&&&&--------------------------------------------&&&----&&&OOOOOOOOO<<<>>>,,,",
",,,>>><<<OOOOOOOOO&&&---&&&&--------------------------------------------&&&----&&&OOOOOOOOO<<<>>>,,,",
",,,>>><<<OOO&&&&&&----------------------------------------------------------------&&&&&&OOO<<<>>>,,,",
",,,>>><<<OOO&&&&&&----------------------------------------------------------------&&&&&&OOO<<<>>>,,,",
",,,>>><<<OOO&&&&&&----------------------------------------------------------------&&&&&&OOO<<<>>>,,,",
",,,>>><<<XXXOOO&&&&&&----------------------------------------------------------&&&&&&OOOXXX<<<>>>,,,",
",,,>>><<<XXXOOO&&&&&&----------------------------------------------------------&&&&&&OOOXXX<<<>>>,,,",
",,,>>><<<XXXOOO&&&&&&----------------------------------------------------------&&&&&&OOOXXX<<<>>>,,,",
",,,>>><<<@@@XXXOOOOOO----------------------------------------------------------OOOOOOXXX@@@<<<>>>,,,",
",,,>>><<<@@@XXXOOOOOO----------------------------------------------------------OOOOOOXXX@@@<<<>>>,,,",
",,,>>><<<@@@XXXOOOOOO----------------------------------------------------------OOOOOOXXX@@@<<<>>>,,,",
",,,,,,>>><<<   OOO&&&----------------------------------------------------------&&&OOO   <<<>>>,,,,,,",
",,,,,,>>><<<   OOO&&&----------------------------------------------------------&&&OOO   <<<>>>,,,,,,",
",,,,,,>>><<<   OOO&&&----------------------------------------------------------&&&OOO   <<<>>>,,,,,,",
",,,,,,>>><<<   OOO&&&----------------------------------------------------------&&&OOO   <<<>>>,,,,,,",
",,,,,,>>><<<XXXOOO&&&&&&---------------------------------------------------&&&&&&&OOOXXX<<<>>>,,,,,,",
",,,,,,>>><<<XXXOOO&&&&&&---------------------------------------------------&&&&&&&OOOXXX<<<>>>,,,,,,",
",,,,,,>>><<<XXXOOO&&&&&&---------------------------------------------------&&&&&&&OOOXXX<<<>>>,,,,,,",
",,,,,,>>><<<XXXOOO&&&&&&---------------------------------------------------&&&&&&&OOOXXX<<<>>>,,,,,,",
",,,>>><<<@@@OOO&&&&&&----------------------------------------------------------&&&&&&OOO@@@<<<>>>,,,",
",,,>>><<<@@@OOO&&&&&&----------------------------------------------------------&&&&&&OOO@@@<<<>>>,,,",
",,,>>><<<@@@OOO&&&&&&----------------------------------------------------------&&&&&&OOO@@@<<<>>>,,,",
",,,>>><<<###OOO&&&----------------------------------------------------------------&&&OOO###<<<>>>,,,",
",,,>>><<<###OOO&&&----------------------------------------------------------------&&&OOO###<<<>>>,,,",
",,,>>><<<###OOO&&&----------------------------------------------------------------&&&OOO###<<<>>>,,,",
",,,>>><<<###OOOOOO&&&&&&---------------------------------------------------&&&&&&&OOOOOO###<<<>>>,,,",
",,,>>><<<###OOOOOO&&&&&&---------------------------------------------------&&&&&&&OOOOOO###<<<>>>,,,",
",,,>>><<<###OOOOOO&&&&&&---------------------------------------------------&&&&&&&OOOOOO###<<<>>>,,,",
",,,>>><<<@@@@@@XXXOOO&&&---------------------------------------------------&&&&OOOXXX@@@@@@<<<>>>,,,",
",,,>>><<<@@@@@@XXXOOO&&&---------------------------------------------------&&&&OOOXXX@@@@@@<<<>>>,,,",
",,,>>><<<@@@@@@XXXOOO&&&---------------------------------------------------&&&&OOOXXX@@@@@@<<<>>>,,,",
",,,,,,>>><<<   OOO&&&----------------------------------------------------------&&&OOO   <<<>>>,,,,,,",
",,,,,,>>><<<   OOO&&&----------------------------------------------------------&&&OOO   <<<>>>,,,,,,",
",,,,,,>>><<<   OOO&&&----------------------------------------------------------&&&OOO   <<<>>>,,,,,,",
",,,,,,>>><<<OOO&&&&&&OOO&&&&---OOO&&&--------------------------&&&OOO---&&&OOOO&&&&&&OOO<<<>>>,,,,,,",
",,,,,,>>><<<OOO&&&&&&OOO&&&&---OOO&&&--------------------------&&&OOO---&&&OOOO&&&&&&OOO<<<>>>,,,,,,",
",,,,,,>>><<<OOO&&&&&&OOO&&&&---OOO&&&--------------------------&&&OOO---&&&OOOO&&&&&&OOO<<<>>>,,,,,,",
",,,,,,>>><<<OOOOOOOOO&&&&&&&&&&&&&OOO------&&&&&&&&&&&&&&------OOO&&&&&&&&&&&&&OOOOOOOOO<<<>>>,,,,,,",
",,,,,,>>><<<OOOOOOOOO&&&&&&&&&&&&&OOO------&&&&&&&&&&&&&&------OOO&&&&&&&&&&&&&OOOOOOOOO<<<>>>,,,,,,",
",,,,,,>>><<<OOOOOOOOO&&&&&&&&&&&&&OOO------&&&&&&&&&&&&&&------OOO&&&&&&&&&&&&&OOOOOOOOO<<<>>>,,,,,,",
",,,,,,>>><<<XXXXXXXXXOOOOOOO&&&OOOOOO&&&&&&OOOOOOOOOOOOOO&&&&&&OOOOOO&&&OOOOOOOXXXXXXXXX<<<>>>,,,,,,",
",,,,,,>>><<<XXXXXXXXXOOOOOOO&&&OOOOOO&&&&&&OOOOOOOOOOOOOO&&&&&&OOOOOO&&&OOOOOOOXXXXXXXXX<<<>>>,,,,,,",
",,,,,,>>><<<XXXXXXXXXOOOOOOO&&&OOOOOO&&&&&&OOOOOOOOOOOOOO&&&&&&OOOOOO&&&OOOOOOOXXXXXXXXX<<<>>>,,,,,,",
",,,,,,>>><<<XXXXXXXXXOOOOOOO&&&OOOOOO&&&&&&OOOOOOOOOOOOOO&&&&&&OOOOOO&&&OOOOOOOXXXXXXXXX<<<>>>,,,,,,",
",,,,,,>>><<<XXX@@@@@@XXXOOOOOOOXXXOOOOOOOOO              OOOOOOOOOXXXOOOOOOXXXX@@@@@@XXX<<<>>>,,,,,,",
",,,,,,>>><<<XXX@@@@@@XXXOOOOOOOXXXOOOOOOOOO              OOOOOOOOOXXXOOOOOOXXXX@@@@@@XXX<<<>>>,,,,,,",
",,,,,,>>><<<XXX@@@@@@XXXOOOOOOOXXXOOOOOOOOO              OOOOOOOOOXXXOOOOOOXXXX@@@@@@XXX<<<>>>,,,,,,",
",,,,,,>>><<<@@@@@@   @@@XXXXXXX@@@XXXXXXXXXXXXXXXXXXXXXXXXXXXXXXXX@@@XXXXXX@@@@   @@@@@@<<<>>>,,,,,,",
",,,,,,>>><<<@@@@@@   @@@XXXXXXX@@@XXXXXXXXXXXXXXXXXXXXXXXXXXXXXXXX@@@XXXXXX@@@@   @@@@@@<<<>>>,,,,,,",
",,,,,,>>><<<@@@@@@   @@@XXXXXXX@@@XXXXXXXXXXXXXXXXXXXXXXXXXXXXXXXX@@@XXXXXX@@@@   @@@@@@<<<>>>,,,,,,",
",,,,,,,,,>>><<<@@@   @@@####@@@@@@XXXXXXXXX@@@@@@@@@@@@@@XXXXXXXXX@@@@@@###@@@@   @@@<<<>>>,,,,,,,,,",
",,,,,,,,,>>><<<@@@   @@@####@@@@@@XXXXXXXXX@@@@@@@@@@@@@@XXXXXXXXX@@@@@@###@@@@   @@@<<<>>>,,,,,,,,,",
",,,,,,,,,>>><<<@@@   @@@####@@@@@@XXXXXXXXX@@@@@@@@@@@@@@XXXXXXXXX@@@@@@###@@@@   @@@<<<>>>,,,,,,,,,",
",,,,,,,,,,,,>>><<<   #######@@@XXX   @@@###@@@@@@@@@@@@@@###@@@   XXX@@@#######   <<<>>>,,,,,,,,,,,,",
",,,,,,,,,,,,>>><<<   #######@@@XXX   @@@###@@@@@@@@@@@@@@###@@@   XXX@@@#######   <<<>>>,,,,,,,,,,,,",
",,,,,,,,,,,,>>><<<   #######@@@XXX   @@@###@@@@@@@@@@@@@@###@@@   XXX@@@#######   <<<>>>,,,,,,,,,,,,",
",,,,,,,,,,,,,,,>>><<<<<<####@@@XXX   ######@@@@@@@@@@@@@@######   XXX@@@###<<<<<<<>>>,,,,,,,,,,,,,,,",
",,,,,,,,,,,,,,,>>><<<<<<####@@@XXX   ######@@@@@@@@@@@@@@######   XXX@@@###<<<<<<<>>>,,,,,,,,,,,,,,,",
",,,,,,,,,,,,,,,>>><<<<<<####@@@XXX   ######@@@@@@@@@@@@@@######   XXX@@@###<<<<<<<>>>,,,,,,,,,,,,,,,",
",,,,,,,,,,,,,,,,,,>>>>>><<<<<<<<<<   ######@@@<<<<<<<<@@@######   <<<<<<<<<>>>>>>>,,,,,,,,,,,,,,,,,,",
",,,,,,,,,,,,,,,,,,>>>>>><<<<<<<<<<   ######@@@<<<<<<<<@@@######   <<<<<<<<<>>>>>>>,,,,,,,,,,,,,,,,,,",
",,,,,,,,,,,,,,,,,,>>>>>><<<<<<<<<<   ######@@@<<<<<<<<@@@######   <<<<<<<<<>>>>>>>,,,,,,,,,,,,,,,,,,",
",,,,,,,,,,,,,,,,,,,,,,,,>>>>>>>>>><<<<<<<<<<<<>>>>>>>><<<<<<<<<<<<>>>>>>>>>,,,,,,,,,,,,,,,,,,,,,,,,,",
",,,,,,,,,,,,,,,,,,,,,,,,>>>>>>>>>><<<<<<<<<<<<>>>>>>>><<<<<<<<<<<<>>>>>>>>>,,,,,,,,,,,,,,,,,,,,,,,,,",
",,,,,,,,,,,,,,,,,,,,,,,,>>>>>>>>>><<<<<<<<<<<<>>>>>>>><<<<<<<<<<<<>>>>>>>>>,,,,,,,,,,,,,,,,,,,,,,,,,"
};
